<svg width="400" height="140" viewBox="0 0 400 140" xmlns="http://www.w3.org/2000/svg">
  <!-- NO background - fully transparent -->

  <!-- Hex icon -->
  <polygon points="52,28 76,15 100,28 100,54 76,67 52,54" fill="none" stroke="#00b4d8" stroke-width="2.5"/>
  <polygon points="60,33 76,24 92,33 92,49 76,58 60,49" fill="#00b4d8" opacity="0.20"/>
  <!-- Gear teeth -->
  <line x1="76" y1="12" x2="76" y2="18" stroke="#00b4d8" stroke-width="3" stroke-linecap="square"/>
  <line x1="76" y1="64" x2="76" y2="70" stroke="#00b4d8" stroke-width="3" stroke-linecap="square"/>
  <line x1="49" y1="26" x2="54" y2="29" stroke="#00b4d8" stroke-width="3" stroke-linecap="square"/>
  <line x1="98" y1="53" x2="103" y2="56" stroke="#00b4d8" stroke-width="3" stroke-linecap="square"/>
  <line x1="49" y1="56" x2="54" y2="53" stroke="#00b4d8" stroke-width="3" stroke-linecap="square"/>
  <line x1="98" y1="29" x2="103" y2="26" stroke="#00b4d8" stroke-width="3" stroke-linecap="square"/>
  <!-- Lightning bolt -->
  <polygon points="72,30 78,30 73,42 80,42 74,58 78,42 71,42 76,30" fill="#00b4d8"/>

  <!-- HBK wordmark - white (works on dark bg) -->
  <text x="118" y="57" font-family="'Arial Black', 'Impact', sans-serif" font-size="54" font-weight="900" fill="#ffffff" letter-spacing="4">HBK</text>
  <!-- Divider -->
  <line x1="118" y1="65" x2="388" y2="65" stroke="#00b4d8" stroke-width="1.2"/>
  <!-- CUSTOMS INC -->
  <text x="118" y="82" font-family="'Arial Narrow', 'Arial', sans-serif" font-size="13" font-weight="700" fill="#888888" letter-spacing="5">CUSTOMS  INC.</text>
  <!-- Tagline -->
  <text x="118" y="100" font-family="'Arial Narrow', 'Arial', sans-serif" font-size="10" fill="#555555" letter-spacing="3">BUILT DIFFERENT · DESIGNED DIGITAL</text>
</svg>
