<svg width="420" height="128" viewBox="0 0 420 128" xmlns="http://www.w3.org/2000/svg" role="img" aria-labelledby="title">
  <title>HBK Customs Inc.</title>
  <g transform="translate(18 18)">
    <polygon points="46,0 79,19 79,57 46,76 13,57 13,19" fill="none" stroke="#00b4d8" stroke-width="3"/>
    <polygon points="46,14 67,26 67,50 46,62 25,50 25,26" fill="#00b4d8" opacity="0.14"/>
    <rect x="36" y="22" width="6" height="32" fill="#00b4d8"/>
    <rect x="50" y="22" width="6" height="32" fill="#00b4d8"/>
    <rect x="36" y="34" width="20" height="6" fill="#00b4d8"/>
    <line x1="46" y1="-8" x2="46" y2="4" stroke="#00b4d8" stroke-width="3" stroke-linecap="square"/>
    <line x1="46" y1="72" x2="46" y2="84" stroke="#00b4d8" stroke-width="3" stroke-linecap="square"/>
    <line x1="3" y1="38" x2="15" y2="38" stroke="#00b4d8" stroke-width="3" stroke-linecap="square"/>
    <line x1="77" y1="38" x2="89" y2="38" stroke="#00b4d8" stroke-width="3" stroke-linecap="square"/>
  </g>
  <text x="126" y="60" font-family="'Arial Black', 'Segoe UI', sans-serif" font-size="58" font-weight="900" letter-spacing="3" fill="#f0eeea">HBK</text>
  <text x="128" y="82" font-family="'Arial Narrow', 'Segoe UI', sans-serif" font-size="14" font-weight="700" letter-spacing="4.2" fill="#8e98a3">CUSTOMS INC.</text>
</svg>
